<svg xmlns="http://www.w3.org/2000/svg" width="180" height="25" viewBox="0 0 180 25">
    <g fill="none" fill-rule="evenodd">
        <path fill="#003DA5" d="M23.299 1.14H.324V12.5c0 6.28 5.137 11.36 11.487 11.36H23.3V1.14z"/>
        <path fill="#DA291C" d="M16.625 9.42l1.941-.24-.445 2.28.728.52-3.114 2.84.121 1.2-2.831-.2-.04.76.04 2.72-.688.04h-.728l.121-2.8v-.72l-2.912.24.202-1.24-3.155-2.76.647-.64-.485-2.48 2.063.44.404-.88 1.861 1.76-.607-3.88 1.376.4 1.254-2.24 1.213 2.28 1.294-.4-.606 3.64 1.9-1.56z"/>
        <path fill="#000" d="M81.95 1.14h15.412v6.52h-6.998v3h6.148v5.92h-6.148v7.28h-8.413zM119.811 1.14h8.373V23.9h-8.373z"/>
        <path fill="#000" fill-rule="nonzero" d="M114.148 14.82c2.913-1 4.167-2.48 4.167-5.8 0-5.72-4.41-7.92-9.587-7.92H98.616v22.76h8.17v-7.28h.162l2.75 7.32h9.628l-5.178-9.08zm-6.755-3.6h-.566V7.34h.647c1.416 0 2.67.2 2.67 1.96 0 1.68-1.375 1.92-2.75 1.92z"/>
        <path fill="#000" d="M144.162 16.58h-5.3V1.14h-8.372v22.72h13.672zM170.535 9.62l-1.901-.44c-.647-.16-1.659-.28-1.659-1.12 0-.92 1.052-1.2 1.78-1.2 1.78 0 3.438.52 4.854 1.48l2.265-5.6c-2.265-1.36-4.652-2-7.28-2-5.016 0-9.992 3-9.992 8.4 0 3.56 2.75 5.48 6.027 6.04l1.659.32c.768.16 1.86.24 1.86 1.28s-1.294 1.36-2.144 1.36c-1.941 0-3.72-.24-5.217-1.4l-.203-.16v7.32c2.306.08 3.358.36 5.42.36l-.04-.04c.243 0 .485.04.688.04 4.975 0 9.99-2.68 9.99-8.12 0-3.88-2.588-5.76-6.107-6.52M159.209 16.58h-5.34V1.14h-8.372v22.72h13.712z"/>
        <path fill="#DA291C" fill-rule="nonzero" d="M68.036.78c-6.998 0-12.742 4.64-12.742 11.8 0 7.32 5.704 11.68 12.742 11.68 6.998 0 12.742-4.36 12.742-11.68 0-7.16-5.744-11.8-12.742-11.8m0 16.28c-2.548 0-4.288-1.8-4.288-4.36 0-2.4 1.659-4.44 4.288-4.44 2.67 0 4.288 2.04 4.288 4.44.04 2.56-1.74 4.36-4.288 4.36"/>
        <path fill="#DA291C" d="M45.789 1.14v11.84L38.71 1.14h-8.009V23.9h8.01v-7.4-4.12l7.078 11.52h8.009V1.14h-8.01z"/>
        <path fill="#221F1F" fill-rule="nonzero" d="M178.503 3.82c-.809 0-1.496-.64-1.496-1.48s.647-1.48 1.496-1.48c.81 0 1.497.64 1.497 1.44 0 .88-.647 1.52-1.497 1.52zm0-2.8c-.728 0-1.334.6-1.334 1.32 0 .72.606 1.32 1.334 1.32.728 0 1.335-.6 1.335-1.32 0-.76-.566-1.32-1.335-1.32zm.284 2.24l-.243-.72h-.243v.72h-.404V1.38h.606c.162 0 .324 0 .445.08.162.08.243.28.243.52s-.08.4-.324.52l.324.76h-.404zm-.284-1.52h-.242v.48h.242c.203 0 .284-.08.284-.24 0-.16-.081-.24-.284-.24z"/>
    </g>
</svg>
