<svg xmlns="http://www.w3.org/2000/svg" width="280px" height="62px" viewBox="0 0 280 62.19"><defs><style>.cls-1{fill:#49a547;}.cls-2{fill:#035536;}</style></defs><g id="Layer_2" data-name="Layer 2"><g id="Layer_1-2" data-name="Layer 1"><g id="Layer_1-3" data-name="Layer 1"><path class="cls-1" d="M180.6,35c1.93-10.21,9.32-18.28,20.24-18.77a4.89,4.89,0,0,1,1.09,0V27.6a8.14,8.14,0,0,0-1.09.14c-7.87,1.28-10,6.36-10.92,12-1.6,6.85-8.88,14-19.5,14.4V43a10.34,10.34,0,0,0,10.18-8m-9.32-18.16-8.6,16.39-7.09-16.5H144l12.29,28.19L146,62.19h12.11l24.21-45.34ZM89.66,43.1A7.49,7.49,0,0,0,97,35.49a7.62,7.62,0,0,0-7.36-7.59c-5.35,0-7.23,3.76-7.34,7.83a7.46,7.46,0,0,0,7.34,7.37m-.35-26c9.87,0,17.88,8.26,17.88,18.4a18.15,18.15,0,0,1-17.88,18.4c-9.62,0-17.59-7.81-17.94-18.4v-.07c0-.13,0-1.34,0-1.85V4.7H81.94v14a17.54,17.54,0,0,1,7.37-1.63M146.5,39.75c0,2.41-5,14.4-17.68,14.35-14.69,0-19.22-12.61-19.22-18.45,0-5,2.77-17.5,17.12-19.07,12-1.32,19,9.69,19.66,13.19L126.18,42l-1.5.88c-.13.08-.28.24,0,.41.36.46,4,1.85,7.68.12a8.89,8.89,0,0,0,3.7-3.64H146.5ZM123.35,28c-2.41,1.64-4.22,4.91-3.7,7.74,0,0,11.88-7.34,13.07-8-2.31-1.69-6.39-1.74-9.37.28m-106.83-.9C14.94,36.29,8.15,42.53,0,42c0,2.78,0,10,0,13.13,18.63.54,27-14.51,28.51-22.94s6.21-16.76,18-19.29a11.19,11.19,0,0,1,1.79-.14V0a5.81,5.81,0,0,0-1.63,0C31.29,1.41,19,12.28,16.52,27.05m34.92,16a7.42,7.42,0,0,0,7.34-7.55c0-3.68-3-7.78-7.34-7.75-4.82,0-7.35,3.85-7.35,8a7.44,7.44,0,0,0,7.35,7.33m-.36-26A18.14,18.14,0,0,1,69,35.54,18.15,18.15,0,0,1,51.08,53.92c-9.61,0-17.52-7.84-18-18.38h0a1.63,1.63,0,0,1,0-.38v0a18.24,18.24,0,0,1,18-18"/></g><g id="TYPE_OUTLINES" data-name="TYPE OUTLINES"><path class="cls-2" d="M218.24,8.21c0-3.58,2.59-5.63,5.94-5.63a6.86,6.86,0,0,1,4,1.19l-1.54,2.51a3.9,3.9,0,0,0-2.36-.82,2.71,2.71,0,0,0-2.95,2.75A2.71,2.71,0,0,0,224.28,11a3.9,3.9,0,0,0,2.36-.82l1.54,2.52a6.93,6.93,0,0,1-4,1.19C220.83,13.85,218.24,11.8,218.24,8.21Z"/><path class="cls-2" d="M227.75,10.05c0-2.59,1.57-3.8,3.38-3.8a2.51,2.51,0,0,1,2.28,1.15h0V6.48h2.86v7.14h-2.86v-.91h0a2.52,2.52,0,0,1-2.28,1.14C229.32,13.85,227.75,12.65,227.75,10.05Zm5.56,0a1.32,1.32,0,0,0-2.63,0A1.25,1.25,0,0,0,232,11.37,1.27,1.27,0,0,0,233.31,10.05Z"/><path class="cls-2" d="M244.81,9.14v4.48H242V9.93c0-.84-.31-1.25-1-1.25s-1.14.43-1.14,1.48v3.46H237V6.48h2.76V7.55h0a2.85,2.85,0,0,1,2.45-1.3C243.74,6.25,244.81,7.18,244.81,9.14Z"/><path class="cls-2" d="M245.15,10.05c0-2.59,1.57-3.8,3.38-3.8a2.51,2.51,0,0,1,2.28,1.15h0V6.48h2.85v7.14h-2.85v-.91h0a2.51,2.51,0,0,1-2.28,1.14C246.72,13.85,245.15,12.65,245.15,10.05Zm5.56,0a1.32,1.32,0,0,0-2.63,0,1.32,1.32,0,1,0,2.63,0Z"/><path class="cls-2" d="M259.71,7.4h0V2.81h2.86V13.62h-2.86v-.91h0a2.52,2.52,0,0,1-2.29,1.14c-1.8,0-3.38-1.2-3.38-3.8s1.58-3.8,3.38-3.8A2.53,2.53,0,0,1,259.71,7.4Zm0,2.65a1.39,1.39,0,0,0-2.78,0,1.39,1.39,0,0,0,2.78,0Z"/><path class="cls-2" d="M263,10.05c0-2.59,1.58-3.8,3.38-3.8a2.53,2.53,0,0,1,2.29,1.15h0V6.48h2.86v7.14h-2.86v-.91h0a2.52,2.52,0,0,1-2.29,1.14C264.53,13.85,263,12.65,263,10.05Zm5.56,0a1.31,1.31,0,0,0-2.62,0,1.31,1.31,0,1,0,2.62,0Z"/><path class="cls-2" d="M274.49,2.58V5.06l-1.32,2.5h-1l.78-2.5H272V2.58Z"/><path class="cls-2" d="M273.22,13.09l.91-2a5.8,5.8,0,0,0,2.58.81c.46,0,.57-.08.57-.23s-.15-.23-.48-.35l-1.08-.35c-1.22-.4-2-1-2-2.28,0-1.46,1-2.4,3.27-2.4a11.77,11.77,0,0,1,2.71.36l-.62,2.11a7.19,7.19,0,0,0-2.3-.52c-.31,0-.43.06-.43.2s.06.18.35.27l1.28.42c1.19.39,2,.93,2,2.29,0,1.74-1.3,2.47-3.29,2.47A8,8,0,0,1,273.22,13.09Z"/><path class="cls-2" d="M221.79,19v1.66h3.56v2.63h-3.56V27.1h-2.94V16.29h7.29V19h-4.35Z"/><path class="cls-2" d="M225.56,23.53c0-2.59,1.57-3.8,3.38-3.8a2.51,2.51,0,0,1,2.28,1.15h0V20h2.86V27.1h-2.86v-.91h0a2.52,2.52,0,0,1-2.28,1.14C227.13,27.33,225.56,26.13,225.56,23.53Zm5.55,0a1.31,1.31,0,1,0-1.31,1.32A1.26,1.26,0,0,0,231.11,23.53Z"/><path class="cls-2" d="M234.8,20h2.77v1.13h0a2.48,2.48,0,0,1,2.33-1.36,2.35,2.35,0,0,1,2.36,1.53h0a2.6,2.6,0,0,1,2.51-1.53c1.66,0,2.58,1,2.58,2.78V27.1h-2.86V23.47c0-.79-.25-1.32-.94-1.32s-1.15.45-1.15,1.43V27.1h-2.71V23.47c0-.79-.25-1.32-.94-1.32s-1.15.45-1.15,1.43V27.1h-2.85V20Z"/><path class="cls-2" d="M251,19H248.1V16.29H251Zm0,8.14h-2.86V20H251Z"/><path class="cls-2" d="M254.67,27.1h-2.85V16.29h2.85Z"/><path class="cls-2" d="M264,20l-4.91,10.23h-2.86l1.87-3.85L254.84,20H258l1.49,3.46L261.21,20Z"/><path class="cls-2" d="M229.37,35.34c0,3.17-1.82,5.47-5.27,5.47s-5.86-2.3-5.86-5.65,2.16-5.62,6-5.62a7,7,0,0,1,4.32,1.39l-1.79,2.41a4,4,0,0,0-2.62-1,2.65,2.65,0,0,0-2.84,2.82A2.66,2.66,0,0,0,224.24,38c1.39,0,2.06-.62,2.18-1.36h-2.67V34.17h5.57C229.35,34.59,229.37,35,229.37,35.34Z"/><path class="cls-2" d="M234.9,35.91h-.17c-1.36,0-2,.47-2,2.06v2.61h-2.86V33.44h2.76v1.33h0a2.13,2.13,0,0,1,2.24-1.54h0v2.68Z"/><path class="cls-2" d="M235.16,37c0-2.31,1.68-3.8,4.09-3.8s4.09,1.49,4.09,3.8-1.68,3.8-4.09,3.8S235.16,39.33,235.16,37Zm5.48,0a1.39,1.39,0,1,0-1.39,1.32A1.29,1.29,0,0,0,240.64,37Z"/><path class="cls-2" d="M243.71,37c0-2.38,1.71-3.8,4.08-3.8a5.25,5.25,0,0,1,2.64.68l-1.1,2.24a2.46,2.46,0,0,0-1.28-.37,1.26,1.26,0,1,0,0,2.5,2.46,2.46,0,0,0,1.28-.37l1.1,2.24a5.17,5.17,0,0,1-2.64.68C245.43,40.81,243.71,39.39,243.71,37Z"/><path class="cls-2" d="M257.84,37.18v.5h-4.91c.23.69.82.94,1.78.94a4.82,4.82,0,0,0,1.8-.4l.76,2.08a7,7,0,0,1-2.66.51c-2.71,0-4.32-1.34-4.32-3.78a3.54,3.54,0,0,1,3.87-3.8C256.37,33.23,257.84,34.5,257.84,37.18Zm-5-1h2.27A1.05,1.05,0,0,0,254,35.07,1.12,1.12,0,0,0,252.87,36.21Z"/><path class="cls-2" d="M263.29,35.91h-.17c-1.35,0-2,.47-2,2.06v2.61h-2.85V33.44H261v1.33h0a2.14,2.14,0,0,1,2.24-1.54h0v2.68Z"/><path class="cls-2" d="M272.74,33.44l-4.91,10.23H265l1.87-3.85-3.26-6.38h3.18l1.5,3.46,1.68-3.46Z"/><path class="cls-2" d="M227.1,43.93l-1.27,2.61a5.15,5.15,0,0,0-2.64-.87c-.46,0-.66.13-.66.41s.12.35.57.58l2.22,1.14a3.14,3.14,0,0,1,2,3.06c0,2.22-1.48,3.43-4.25,3.43a9.18,9.18,0,0,1-4.57-1.22l1.34-2.81a5.89,5.89,0,0,0,3.39,1.33c.57,0,.91-.13.91-.48s-.19-.4-.53-.57l-2.36-1.19a3.27,3.27,0,0,1-1.91-3.06c0-1.93,1.34-3.27,4.06-3.27A8.11,8.11,0,0,1,227.1,43.93Z"/><path class="cls-2" d="M231.62,49.27v1.16c0,.76.16,1,.76,1h.25v2.66h-1.16c-1.56,0-2.7-.71-2.7-2.79v-2h-1.44V46.93h1.44V44.07h2.86v2.86h1.51v2.34Z"/><path class="cls-2" d="M233.32,50.49c0-2.31,1.69-3.8,4.1-3.8s4.09,1.49,4.09,3.8-1.69,3.8-4.09,3.8S233.32,52.81,233.32,50.49Zm5.48,0a1.39,1.39,0,0,0-2.78,0,1.39,1.39,0,0,0,2.78,0Z"/><path class="cls-2" d="M247,49.39h-.17c-1.36,0-2,.47-2,2.06v2.61h-2.85V46.92h2.76v1.33h0a2.14,2.14,0,0,1,2.24-1.54h0v2.68Z"/><path class="cls-2" d="M254.77,50.66v.5h-4.91c.23.69.81.94,1.77.94a4.82,4.82,0,0,0,1.81-.4l.76,2.08a7,7,0,0,1-2.66.51c-2.72,0-4.32-1.34-4.32-3.78a3.54,3.54,0,0,1,3.87-3.8C253.3,46.71,254.77,48,254.77,50.66Zm-5-1h2.27A1.05,1.05,0,0,0,251,48.55,1.11,1.11,0,0,0,249.8,49.69Z"/></g></g></g></svg>