<svg xmlns="http://www.w3.org/2000/svg" viewBox="0 0 1200 204.31"><defs><style>.cls-1{fill:#194b9f;}.cls-2{fill:#ee3124;}</style></defs><g id="Layer_2" data-name="Layer 2"><g id="Layer_1-2" data-name="Layer 1"><path class="cls-1" d="M238.92,1.26h34.84c17.89,0,33.05,7.58,33.05,27.58,0,12-4.63,17-15.37,20.63v.63a20.44,20.44,0,0,1,4.85,4.73l17.26,25.79H280.29L267.66,55.15h-.53V80.62H238.92V1.26m28.21,35.15h2c4.74,0,9.47-.73,9.47-6.62,0-6.11-4.31-6.85-9.26-6.85h-2.21Z"/><polyline class="cls-1" points="316.6 1.26 369.96 1.26 369.96 22.94 345.65 22.94 345.65 30.52 367.85 30.52 367.85 51.15 345.65 51.15 345.65 58.94 370.81 58.94 370.81 80.62 316.6 80.62 316.6 1.26"/><path class="cls-1" d="M404.48,80.62H374L401.54,1.26h31.89l28.31,79.36H431.22l-2.63-9.89H406.8l-2.32,9.89m19.06-28.73-3.37-14c-.85-3.37-1.37-6.84-1.9-10.21h-1L412,51.89Z"/><polyline class="cls-1" points="466.16 1.26 495 1.26 495 55.15 519.21 55.15 519.21 80.62 466.16 80.62 466.16 1.26"/><path class="cls-1" d="M618.9,33.47c-4.64-4.31-10.43-8-16.95-8a15.55,15.55,0,0,0-15.69,15.47c0,8.74,7.47,15.47,16.1,15.47,6.64,0,11.9-2.84,16.54-7.36l-.85,29.68c-4.64,2.21-15.37,3.15-20.52,3.15-22.63,0-40.32-17.58-40.32-40.2A41.26,41.26,0,0,1,598.68,0a60.16,60.16,0,0,1,19.37,3.26l.85,30.21"/><path class="cls-1" d="M651.71,80.62H621.18L648.76,1.26h31.88L709,80.62H678.44l-2.63-9.89H654l-2.31,9.89m19-28.73-3.37-14c-.85-3.37-1.37-6.84-1.9-10.21h-1l-5.26,24.21Z"/><path class="cls-1" d="M713,1.26h27.68l25.9,44h.83C766.22,38.62,765,31.78,765,25V1.26h27.58V80.62H765L739.59,38.94h-.84a92.71,92.71,0,0,1,1.78,15.89V80.62H713V1.26"/><path class="cls-1" d="M827,80.62H796.43L824,1.26H855.9l28.31,79.36H853.68l-2.62-9.89h-21.8L827,80.62m19-28.73-3.36-14c-.85-3.37-1.38-6.84-1.91-10.21h-1.05l-5.25,24.21Z"/><path class="cls-1" d="M888.84,1.26h29.37c26.62,0,47,11.69,47,40.84,0,23.58-16.64,38.52-39.9,38.52H888.84V1.26m28.84,55.58h1.79c9.58,0,16.94-4.43,16.94-14.85,0-11.15-6.41-15.89-16.94-15.89h-1.79Z"/><rect class="cls-1" x="973.48" y="1.26" width="28.84" height="79.36"/><path class="cls-1" d="M1037.48,80.62H1007l27.58-79.36h31.89l28.31,79.36h-30.52l-2.64-9.89h-21.79l-2.31,9.89m19.06-28.73-3.38-14c-.84-3.37-1.37-6.84-1.89-10.21h-1L1045,51.89Z"/><path class="cls-1" d="M1098.73,1.26h27.68l25.9,44h.84c-1.16-6.64-2.42-13.48-2.42-20.22V1.26h27.58V80.62h-27.58l-25.36-41.68h-.84a93.75,93.75,0,0,1,1.79,15.89V80.62h-27.59V1.26"/><path class="cls-2" d="M246.69,165.69l1.91,1.51c6.72,5.21,14.79,9.45,23.42,9.45,3.7,0,9.59-1.51,9.59-6.17s-4.93-5.06-8.36-5.75l-7.53-1.37c-14.65-2.59-27-11.24-27-27.39,0-24.52,22.33-38.22,44.79-38.22a61.41,61.41,0,0,1,32.73,9l-10.14,26.43c-6.43-4.39-13.69-7.81-21.78-7.81-3.27,0-8.08,1.24-8.08,5.48,0,3.83,4.66,4.39,7.54,5.07l8.49,1.92c15.89,3.56,27.4,12.06,27.4,29.58,0,24.66-22.47,36.84-44.79,36.84a93,93,0,0,1-39.72-9.45l11.51-29.17"/><path class="cls-2" d="M423,99.4v61.08c0,30.13-18.9,43.83-47.8,43.83s-47.8-13.7-47.8-43.83V99.4h37.53v57.52c0,8.09.27,15.21,10.27,15.21s10.27-7.12,10.27-15.21V99.4H423"/><path class="cls-2" d="M432.5,99.4H480c24.1,0,41.91,12.32,41.91,37.93,0,21.11-13.15,34.25-34.1,34.25H468.66v31.08H432.5V99.4m36.16,46.16h3.69c6.58,0,13.7-1.1,13.7-9.45,0-8.09-7.66-8.49-13.83-8.49h-3.56Z"/><polyline class="cls-2" points="530.63 99.4 600.07 99.4 600.07 127.62 568.43 127.62 568.43 137.47 597.33 137.47 597.33 164.32 568.43 164.32 568.43 174.46 601.17 174.46 601.17 202.66 530.63 202.66 530.63 99.4"/><path class="cls-2" d="M610.82,99.4h45.33c23.28,0,43,9.86,43,35.89,0,15.61-6,22.18-20,26.84V163a26.24,26.24,0,0,1,6.31,6.15l22.46,33.55H664.64l-16.43-33.13h-.69v33.13h-36.7V99.4m36.7,45.74h2.6c6.17,0,12.33-1,12.33-8.63,0-7.94-5.61-8.89-12.05-8.89h-2.88Z"/><path class="cls-2" d="M722,165.69l1.92,1.51c6.7,5.21,14.78,9.45,23.42,9.45,3.69,0,9.58-1.51,9.58-6.17s-4.93-5.06-8.35-5.75l-7.54-1.37c-14.65-2.59-27-11.24-27-27.39,0-24.52,22.32-38.22,44.79-38.22a61.38,61.38,0,0,1,32.73,9l-10.13,26.43c-6.44-4.39-13.7-7.81-21.78-7.81-3.28,0-8.08,1.24-8.08,5.48,0,3.83,4.66,4.39,7.54,5.07l8.49,1.92C783.51,141.45,795,150,795,167.47c0,24.66-22.46,36.84-44.78,36.84a93,93,0,0,1-39.72-9.45L722,165.69"/><polyline class="cls-2" points="799.38 99.4 878.27 99.4 878.27 132.96 857.58 132 857.58 202.66 820.05 202.66 820.05 132 799.38 132.96 799.38 99.4"/><path class="cls-2" d="M998.87,151.31c0,33.14-25.62,53-57.11,53s-57.12-19.86-57.12-53c0-32.46,25.75-53.56,57.12-53.56s57.11,21.1,57.11,53.56m-76.42.55c0,11.77,7.94,19.85,19.31,19.85s19.3-8.08,19.3-19.85c0-11-7.39-20.14-19.3-20.14S922.45,140.89,922.45,151.86Z"/><path class="cls-2" d="M1007.07,99.4h45.34c23.28,0,43,9.86,43,35.89,0,15.61-6,22.18-20,26.84V163a26.24,26.24,0,0,1,6.31,6.15l22.46,33.55H1060.9l-16.43-33.13h-.69v33.13h-36.71V99.4m36.71,45.74h2.61c6.17,0,12.32-1,12.32-8.63,0-7.94-5.61-8.89-12-8.89h-2.88Z"/><polyline class="cls-2" points="1107.77 99.4 1177.21 99.4 1177.21 127.62 1145.57 127.62 1145.57 137.47 1174.47 137.47 1174.47 164.32 1145.57 164.32 1145.57 174.46 1178.3 174.46 1178.3 202.66 1107.77 202.66 1107.77 99.4"/><path class="cls-2" d="M246.69,165.69l1.91,1.51c6.72,5.21,14.79,9.45,23.42,9.45,3.7,0,9.59-1.51,9.59-6.17s-4.93-5.06-8.36-5.75l-7.53-1.37c-14.65-2.59-27-11.24-27-27.39,0-24.52,22.33-38.22,44.79-38.22a61.41,61.41,0,0,1,32.73,9l-10.14,26.43c-6.43-4.39-13.69-7.81-21.78-7.81-3.27,0-8.08,1.24-8.08,5.48,0,3.83,4.66,4.39,7.54,5.07l8.49,1.92c15.89,3.56,27.4,12.06,27.4,29.58,0,24.66-22.47,36.84-44.79,36.84a93,93,0,0,1-39.72-9.45l11.51-29.17"/><path class="cls-2" d="M423,99.4v61.08c0,30.13-18.9,43.83-47.8,43.83s-47.8-13.7-47.8-43.83V99.4h37.53v57.52c0,8.09.27,15.21,10.27,15.21s10.27-7.12,10.27-15.21V99.4H423"/><path class="cls-2" d="M432.5,99.4H480c24.1,0,41.91,12.32,41.91,37.93,0,21.11-13.15,34.25-34.1,34.25H468.66v31.08H432.5V99.4m36.16,46.16h3.69c6.58,0,13.7-1.1,13.7-9.45,0-8.09-7.66-8.49-13.83-8.49h-3.56Z"/><polyline class="cls-2" points="530.21 99.4 599.66 99.4 599.66 127.62 568.02 127.62 568.02 137.47 596.92 137.47 596.92 164.32 568.02 164.32 568.02 174.46 600.75 174.46 600.75 202.66 530.21 202.66 530.21 99.4"/><path class="cls-2" d="M610.42,99.4h45.32c23.29,0,43,9.86,43,35.89,0,15.61-6,22.18-20,26.84V163a26.24,26.24,0,0,1,6.31,6.15l22.46,33.55H664.24L647.8,169.53h-.68v33.13h-36.7V99.4m36.7,45.74h2.6c6.16,0,12.32-1,12.32-8.63,0-7.94-5.61-8.89-12-8.89h-2.88Z"/><path class="cls-2" d="M721.61,165.69l1.92,1.51c6.71,5.21,14.79,9.45,23.42,9.45,3.7,0,9.58-1.51,9.58-6.17s-4.93-5.06-8.35-5.75l-7.53-1.37c-14.66-2.59-27-11.24-27-27.39,0-24.52,22.33-38.22,44.78-38.22a61.44,61.44,0,0,1,32.74,9l-10.14,26.43c-6.43-4.39-13.7-7.81-21.78-7.81-3.29,0-8.08,1.24-8.08,5.48,0,3.83,4.66,4.39,7.54,5.07l8.49,1.92c15.88,3.56,27.39,12.06,27.39,29.58,0,24.66-22.45,36.84-44.78,36.84a93,93,0,0,1-39.72-9.45l11.5-29.17"/><path class="cls-2" d="M998.46,151.31c0,33.14-25.62,53-57.12,53s-57.11-19.86-57.11-53c0-32.46,25.75-53.56,57.11-53.56s57.12,21.1,57.12,53.56m-76.43.55c0,11.77,8,19.85,19.31,19.85s19.32-8.08,19.32-19.85c0-11-7.39-20.14-19.32-20.14S922,140.89,922,151.86Z"/><path class="cls-2" d="M1006.67,99.4H1052c23.28,0,43,9.86,43,35.89,0,15.61-6,22.18-20,26.84V163a25.87,25.87,0,0,1,6.3,6.15l22.47,33.55H1060.5l-16.44-33.13h-.69v33.13h-36.7V99.4m36.7,45.74H1046c6.16,0,12.33-1,12.33-8.63,0-7.94-5.63-8.89-12.06-8.89h-2.88Z"/><polyline class="cls-2" points="1107.77 99.4 1177.21 99.4 1177.21 127.62 1145.57 127.62 1145.57 137.47 1174.47 137.47 1174.47 164.32 1145.57 164.32 1145.57 174.46 1178.3 174.46 1178.3 202.66 1107.77 202.66 1107.77 99.4"/><path class="cls-1" d="M201.39,1.27H0V102A100.69,100.69,0,0,0,100.68,202.66H201.4V1.27h0"/><polyline class="cls-2" points="141.56 79.16 158.42 77.03 154.37 97.13 160.82 101.86 133.71 127.03 134.85 137.86 109.79 135.76 109.64 142.62 110.06 166.8 103.94 166.91 97.58 167.01 98.48 142.21 98.48 135.91 72.98 138.05 74.98 127 47.16 102.64 52.77 96.83 48.57 74.98 66.53 78.93 70.37 70.99 86.61 86.56 81.09 52.3 93.21 55.98 104.25 36.11 114.86 56.13 126.29 52.71 121.02 84.83 137.49 70.94 141.56 79.16"/><path class="cls-1" d="M1183.26,9.72v0a8.37,8.37,0,1,1,16.74,0v0a8.37,8.37,0,1,1-16.74,0Zm15.77,0v0a7.4,7.4,0,1,0-14.8,0v0a7.4,7.4,0,1,0,14.8,0ZM1188,5h4.14a4.06,4.06,0,0,1,3,1,2.73,2.73,0,0,1,.76,2v.05a2.79,2.79,0,0,1-1.83,2.73l2.13,3.1h-2.84l-1.8-2.71h-1.09v2.71H1188Zm4.1,4.28c.85,0,1.34-.39,1.34-1V8.17c0-.71-.54-1.06-1.37-1.06h-1.59V9.26Z"/></g></g></svg>